<svg width="504" height="298" viewBox="0 0 504 298" fill="none" xmlns="http://www.w3.org/2000/svg">
<g opacity="0.5" filter="url(#filter0_d)">
<path d="M7.5 216.75L63.5 112H118L40.25 250.75H7.5V216.75ZM87.25 250.75H52.25L73.75 212.5H87.5L106.25 178.25H136.25V212.5H157.25V250.75H136.25V284H87.25V250.75ZM265.824 198C265.824 183.5 265.741 174 265.574 169.5C265.241 162.5 264.574 157.583 263.574 154.75C262.408 151.917 260.574 150.167 258.074 149.5C255.741 148.667 251.741 148.25 246.074 148.25C243.574 148.25 240.491 148.417 236.824 148.75V110.25C237.824 110.083 239.324 110 241.324 110H246.074C263.574 110 277.074 111.5 286.574 114.5C296.074 117.333 303.074 122.083 307.574 128.75C311.741 134.917 314.324 143 315.324 153C316.324 163 316.824 178 316.824 198C316.824 216 316.408 229.667 315.574 239C314.908 248.333 313.074 256.167 310.074 262.5C306.741 269.5 301.574 274.833 294.574 278.5C287.741 282 278.158 284.25 265.824 285.25V198ZM246.074 286C228.741 286 215.241 284.583 205.574 281.75C196.074 278.75 189.074 273.833 184.574 267C180.408 260.833 177.824 252.833 176.824 243C175.824 233.167 175.324 218.167 175.324 198C175.324 180 175.658 166.333 176.324 157C177.158 147.667 179.074 139.833 182.074 133.5C185.408 126.5 190.491 121.25 197.324 117.75C204.324 114.083 213.991 111.75 226.324 110.75V198C226.324 212.333 226.408 221.75 226.574 226.25C226.908 232.917 227.658 237.917 228.824 241.25C229.991 244.083 231.741 245.917 234.074 246.75C236.408 247.417 240.408 247.75 246.074 247.75H251.074C252.241 247.75 253.658 247.583 255.324 247.25V285.75C254.324 285.917 252.824 286 250.824 286H246.074ZM336.113 216.75L392.113 112H446.613L368.863 250.75H336.113V216.75ZM415.863 250.75H380.863L402.363 212.5H416.113L434.863 178.25H464.863V212.5H485.863V250.75H464.863V284H415.863V250.75Z" fill="#001AFF"/>
</g>
<g opacity="0.8" filter="url(#filter1_d)">
<path d="M18.899 219.896L74.899 115.146H129.399L51.649 253.896H18.899V219.896ZM98.649 253.896H63.649L85.149 215.646H98.899L117.649 181.396H147.649V215.646H168.649V253.896H147.649V287.146H98.649V253.896ZM277.223 201.146C277.223 186.646 277.14 177.146 276.973 172.646C276.64 165.646 275.973 160.73 274.973 157.896C273.807 155.063 271.973 153.313 269.473 152.646C267.14 151.813 263.14 151.396 257.473 151.396C254.973 151.396 251.89 151.563 248.223 151.896V113.396C249.223 113.23 250.723 113.146 252.723 113.146H257.473C274.973 113.146 288.473 114.646 297.973 117.646C307.473 120.48 314.473 125.23 318.973 131.896C323.14 138.063 325.723 146.146 326.723 156.146C327.723 166.146 328.223 181.146 328.223 201.146C328.223 219.146 327.807 232.813 326.973 242.146C326.307 251.48 324.473 259.313 321.473 265.646C318.14 272.646 312.973 277.98 305.973 281.646C299.14 285.146 289.557 287.396 277.223 288.396V201.146ZM257.473 289.146C240.14 289.146 226.64 287.73 216.973 284.896C207.473 281.896 200.473 276.98 195.973 270.146C191.807 263.98 189.223 255.98 188.223 246.146C187.223 236.313 186.723 221.313 186.723 201.146C186.723 183.146 187.057 169.48 187.723 160.146C188.557 150.813 190.473 142.98 193.473 136.646C196.807 129.646 201.89 124.396 208.723 120.896C215.723 117.23 225.39 114.896 237.723 113.896V201.146C237.723 215.48 237.807 224.896 237.973 229.396C238.307 236.063 239.057 241.063 240.223 244.396C241.39 247.23 243.14 249.063 245.473 249.896C247.807 250.563 251.807 250.896 257.473 250.896H262.473C263.64 250.896 265.057 250.73 266.723 250.396V288.896C265.723 289.063 264.223 289.146 262.223 289.146H257.473ZM347.512 219.896L403.512 115.146H458.012L380.262 253.896H347.512V219.896ZM427.262 253.896H392.262L413.762 215.646H427.512L446.262 181.396H476.262V215.646H497.262V253.896H476.262V287.146H427.262V253.896Z" fill="#FF0000"/>
</g>
<defs>
<filter id="filter0_d" x="3.5" y="110" width="486.363" height="184" filterUnits="userSpaceOnUse" color-interpolation-filters="sRGB">
<feFlood flood-opacity="0" result="BackgroundImageFix"/>
<feColorMatrix in="SourceAlpha" type="matrix" values="0 0 0 0 0 0 0 0 0 0 0 0 0 0 0 0 0 0 127 0"/>
<feOffset dy="4"/>
<feGaussianBlur stdDeviation="2"/>
<feColorMatrix type="matrix" values="0 0 0 0 0 0 0 0 0 0 0 0 0 0 0 0 0 0 0.25 0"/>
<feBlend mode="normal" in2="BackgroundImageFix" result="effect1_dropShadow"/>
<feBlend mode="normal" in="SourceGraphic" in2="effect1_dropShadow" result="shape"/>
</filter>
<filter id="filter1_d" x="14.899" y="113.146" width="486.363" height="184" filterUnits="userSpaceOnUse" color-interpolation-filters="sRGB">
<feFlood flood-opacity="0" result="BackgroundImageFix"/>
<feColorMatrix in="SourceAlpha" type="matrix" values="0 0 0 0 0 0 0 0 0 0 0 0 0 0 0 0 0 0 127 0"/>
<feOffset dy="4"/>
<feGaussianBlur stdDeviation="2"/>
<feColorMatrix type="matrix" values="0 0 0 0 0 0 0 0 0 0 0 0 0 0 0 0 0 0 0.25 0"/>
<feBlend mode="normal" in2="BackgroundImageFix" result="effect1_dropShadow"/>
<feBlend mode="normal" in="SourceGraphic" in2="effect1_dropShadow" result="shape"/>
</filter>
</defs>
</svg>
